<svg width="300" height="301" viewBox="0 0 300 301" fill="none" xmlns="http://www.w3.org/2000/svg">
<path d="M149.803 136.172C141.888 136.172 135.447 142.462 135.447 150.197C135.447 157.931 141.888 164.221 149.803 164.221C157.718 164.221 164.159 157.931 164.159 150.197C164.159 142.462 157.718 136.172 149.803 136.172Z" fill="#231F20"/>
<path d="M265.038 153.999C275.492 153.935 287.343 153.863 300 153.863V146.262C287.343 146.262 275.492 146.19 265.035 146.126C246.033 146.011 230.236 145.914 217.215 146.26C207.068 145.989 198.754 145.427 192.077 144.417C198.253 141.684 206.125 138.951 215.84 136.015C228.489 132.918 243.716 128.661 262.01 123.544C272.079 120.729 283.49 117.535 295.7 114.2L293.698 106.867C281.486 110.203 270.037 113.257 259.934 115.949C241.578 120.844 226.303 124.916 213.833 128.68C204.225 131.032 196.206 132.666 189.594 133.478C194.789 129.382 201.53 124.865 209.838 119.743C221.274 113.509 234.898 105.49 251.271 95.8538C260.282 90.552 270.495 84.5403 281.443 78.1883L277.628 71.614C266.68 77.966 256.394 83.8545 247.319 89.0464C230.831 98.482 217.11 106.332 206.023 113.168C197.42 117.859 190.135 121.479 183.986 123.957C187.973 118.604 193.382 112.432 200.212 105.228C209.664 96.2664 220.773 85.0225 234.126 71.5095C241.473 64.0726 249.803 55.6417 258.755 46.6937L253.38 41.3196C244.428 50.2702 235.999 58.5966 228.561 65.9452C215.047 79.2948 203.802 90.4047 194.84 99.8536C187.608 106.709 181.416 112.132 176.05 116.121C178.515 109.903 182.148 102.522 186.901 93.7615C193.712 82.6596 201.533 68.9243 210.929 52.4161C216.103 43.3315 221.965 33.0334 228.294 22.0735L221.71 18.2719C215.382 29.2318 209.394 39.4577 204.113 48.4779C194.515 64.8709 186.526 78.5125 180.318 89.96C175.01 98.6106 170.364 105.528 166.152 110.805C166.873 104.095 168.44 95.9101 170.758 86.0298C174.402 73.5268 178.324 58.2135 183.043 39.814C185.639 29.6873 188.578 18.2076 191.796 5.96716L184.444 4.03558C181.229 16.2761 178.145 27.7182 175.428 37.8127C170.49 56.1534 166.38 71.4184 163.406 84.0956C160.59 93.7615 157.951 101.619 155.298 107.797C154.307 101.177 153.742 92.9605 153.452 82.9811C153.768 69.9637 153.637 54.1548 153.479 35.1605C153.393 24.7069 153.292 12.8576 153.265 0.199219L145.664 0.215293C145.693 12.871 145.647 24.7203 145.607 35.1766C145.535 54.1709 145.473 69.9798 145.851 82.9972C145.615 92.6524 145.122 100.695 144.222 107.21C141.634 101.14 139.046 93.4775 136.281 84.1626C133.245 71.4988 129.06 56.2552 124.033 37.936C121.266 27.8548 118.131 16.4288 114.854 4.20436L107.513 6.17077C110.79 18.3952 113.785 29.8614 116.432 39.9747C121.236 58.3502 125.236 73.6447 128.939 86.129C131.262 95.819 132.862 103.891 133.633 110.535C129.483 105.292 124.904 98.4552 119.693 89.96C113.485 78.5125 105.495 64.8709 95.898 48.4806C90.6144 39.4577 84.6288 29.2318 78.2976 18.2719L71.7145 22.0735C78.043 33.0334 83.9054 43.3315 89.0791 52.4161C98.4755 68.9243 106.299 82.6623 113.11 93.7615C117.949 102.683 121.617 110.165 124.082 116.45C118.629 112.469 112.325 107.02 104.925 100.073C95.9167 90.6672 84.6154 79.6136 71.0366 66.3283C63.5613 59.0172 55.092 50.731 46.0976 41.8232L40.7497 47.2242C49.7441 56.1292 58.1116 64.5199 65.4958 71.9194C78.9165 85.3681 90.0785 96.5584 99.574 105.474C106.519 112.729 111.995 118.928 116.02 124.305C109.75 121.854 102.293 118.216 93.4169 113.428C82.2978 106.645 68.5422 98.8543 52.0108 89.4938C42.9119 84.3421 32.6019 78.5045 21.6274 72.2007L17.8415 78.7911C28.8187 85.0949 39.059 91.0584 48.0937 96.32C64.5098 105.879 78.169 113.835 89.6311 120.019C97.945 125.093 104.697 129.569 109.905 133.633C103.373 132.835 95.472 131.246 86.0676 128.996C73.582 125.291 58.2858 121.294 39.9057 116.488C29.7913 113.843 18.3238 110.846 6.09812 107.569L4.12882 114.91C16.3545 118.186 27.7845 121.321 37.8641 124.088C56.1825 129.117 71.4305 133.299 84.0956 136.334C93.65 139.168 101.439 141.821 107.58 144.473C100.965 145.445 92.7551 145.992 82.7961 146.257C69.7773 145.911 53.9614 146.005 34.965 146.12C24.5104 146.185 12.6598 146.257 0 146.257V153.857C12.6571 153.857 24.5077 153.93 34.9624 153.994C53.9614 154.109 69.7666 154.206 82.7881 153.86C92.932 154.131 101.246 154.693 107.923 155.703C101.75 158.436 93.8778 161.168 84.1626 164.105C71.5135 167.202 56.287 171.459 37.9927 176.576C27.9238 179.391 16.5099 182.585 4.30298 185.92L6.30442 193.253C18.5167 189.917 29.9654 186.863 40.0691 184.171C58.4251 179.276 73.6999 175.204 86.1694 171.44C95.7319 169.098 103.724 167.467 110.318 166.652C105.083 170.818 98.2531 175.41 89.765 180.645C78.3324 186.879 64.7054 194.897 48.3348 204.534C39.3243 209.836 29.1107 215.847 18.1631 222.199L21.9784 228.774C32.9261 222.422 43.212 216.533 52.2868 211.341C68.7753 201.906 82.4961 194.056 93.583 187.219C102.326 182.453 109.696 178.805 115.904 176.326C111.928 181.642 106.551 187.769 99.791 194.9C90.3384 203.861 79.2273 215.105 65.8763 228.618C58.5296 236.055 50.1996 244.486 41.248 253.434L46.6227 258.808C55.5743 249.858 64.0034 241.531 71.4412 234.183C84.9557 220.833 96.2007 209.723 105.163 200.274C112.395 193.419 118.586 187.999 123.953 184.01C121.488 190.225 117.855 197.609 113.105 206.366C106.294 217.468 98.4728 231.206 89.0738 247.714C83.9 256.799 78.0377 267.097 71.7091 278.057L78.2922 281.859C84.6207 270.896 90.609 260.67 95.8926 251.65C105.49 235.257 113.48 221.615 119.688 210.171C124.993 201.52 129.639 194.603 133.85 189.328C133.13 196.041 131.562 204.226 129.245 214.106C125.601 226.609 121.678 241.922 116.963 260.322C114.369 270.449 111.427 281.926 108.209 294.169L115.561 296.1C118.777 283.86 121.861 272.418 124.577 262.323C129.515 243.983 133.625 228.717 136.599 216.04C139.303 206.763 141.843 199.114 144.386 193.046C145.334 199.588 145.873 207.676 146.154 217.42C145.838 230.437 145.969 246.244 146.127 265.238C146.215 275.691 146.315 287.541 146.341 300.199L153.943 300.183C153.913 287.527 153.959 275.678 153.999 265.225C154.071 246.23 154.13 230.421 153.755 217.404C154.002 207.309 154.54 199.026 155.523 192.363C158.197 198.522 160.866 206.35 163.722 215.973C166.758 228.637 170.943 243.883 175.969 262.2C178.737 272.281 181.872 283.707 185.149 295.932L192.49 293.965C189.213 281.741 186.218 270.275 183.57 260.161C178.766 241.783 174.766 226.491 171.063 214.007C168.74 204.317 167.144 196.245 166.369 189.604C170.52 194.847 175.098 201.683 180.31 210.179C186.52 221.626 194.507 235.268 204.107 251.661C209.388 260.681 215.377 270.907 221.705 281.869L228.288 278.068C221.96 267.108 216.097 256.81 210.924 247.725C201.527 231.217 193.706 217.482 186.895 206.38C182.057 197.459 178.386 189.976 175.924 183.691C181.376 187.672 187.681 193.121 195.081 200.068C204.089 209.474 215.39 220.528 228.969 233.813C236.444 241.124 244.913 249.41 253.908 258.318L259.256 252.917C250.261 244.012 241.894 235.624 234.51 228.222C221.089 214.77 209.927 203.583 200.431 194.667C193.73 187.669 188.369 181.636 184.382 176.391C190.48 178.839 197.701 182.397 206.189 186.976C217.306 193.759 231.064 201.549 247.595 210.91C256.694 216.062 267.007 221.899 277.981 228.203L281.767 221.613C270.79 215.309 260.55 209.345 251.515 204.084C235.102 194.525 221.437 186.568 209.975 180.385C201.423 175.166 194.553 170.585 189.288 166.43C195.976 167.191 204.121 168.793 213.932 171.145C226.421 174.85 241.714 178.847 260.094 183.654C270.209 186.298 281.676 189.296 293.902 192.572L295.871 185.232C283.645 181.955 272.216 178.821 262.136 176.053C243.817 171.025 228.57 166.843 215.904 163.807C206.35 160.973 198.561 158.321 192.423 155.668C199.038 154.696 207.248 154.149 217.209 153.884C230.228 154.23 246.039 154.133 265.038 154.018V153.999ZM169.169 155.098C168.939 155.979 168.885 156.89 168.799 157.793C168.223 158.497 167.618 159.181 167.162 159.968C166.715 160.743 166.434 161.592 166.115 162.425C165.391 162.947 164.644 163.44 164.011 164.073C163.363 164.721 162.857 165.484 162.324 166.226C161.447 166.556 160.561 166.861 159.749 167.33C159.044 167.737 158.444 168.289 157.806 168.796C156.938 168.892 156.065 168.946 155.221 169.176C154.342 169.417 153.527 169.824 152.699 170.205C151.802 170.057 150.907 169.878 149.996 169.878C149.085 169.878 148.225 170.057 147.343 170.199C146.529 169.835 145.728 169.433 144.865 169.203C143.834 168.927 142.778 168.785 141.709 168.71C141.119 168.26 140.573 167.748 139.927 167.378C139.241 166.985 138.531 166.642 137.797 166.35C137.248 165.584 136.717 164.804 136.05 164.142C135.404 163.502 134.641 163.001 133.899 162.473C133.577 161.621 133.288 160.759 132.832 159.971C132.385 159.197 131.79 158.527 131.227 157.836C131.136 156.949 131.083 156.054 130.852 155.192C130.59 154.214 130.158 153.3 129.724 152.387C129.815 151.671 129.982 150.964 129.979 150.241C129.979 149.45 129.802 148.676 129.689 147.897C130.132 146.962 130.566 146.027 130.826 145.03C131.056 144.149 131.11 143.24 131.195 142.335C131.771 141.63 132.374 140.947 132.832 140.157C133.28 139.383 133.561 138.533 133.88 137.7C134.603 137.178 135.351 136.685 135.983 136.053C136.589 135.447 137.058 134.729 137.561 134.041C138.333 133.735 139.129 133.478 139.849 133.06C140.675 132.581 141.395 131.954 142.127 131.34C143.014 131.244 143.909 131.188 144.771 130.952C145.65 130.711 146.465 130.303 147.29 129.923C148.187 130.07 149.082 130.25 149.993 130.25C150.904 130.25 151.764 130.07 152.646 129.928C153.46 130.293 154.261 130.695 155.124 130.925C155.829 131.115 156.563 131.137 157.284 131.233C158.047 131.873 158.803 132.519 159.668 133.015C160.579 133.537 161.565 133.893 162.557 134.239C163.009 134.828 163.411 135.463 163.942 135.986C164.588 136.626 165.351 137.127 166.091 137.655C166.412 138.507 166.702 139.369 167.157 140.16C167.604 140.934 168.199 141.604 168.762 142.295C168.853 143.182 168.907 144.076 169.137 144.939C169.333 145.673 169.692 146.345 169.984 147.045C169.791 148.076 169.611 149.108 169.614 150.155C169.614 151.133 169.799 152.097 169.973 153.059C169.694 153.737 169.349 154.391 169.164 155.103L169.169 155.098Z" fill="#231F20"/>
</svg>
