<svg width="74" height="74" viewBox="0 0 74 74" fill="none" xmlns="http://www.w3.org/2000/svg">
<path fill-rule="evenodd" clip-rule="evenodd" d="M37.2129 8.80896C38.2473 8.80896 39.1749 9.44603 39.5462 10.4115L44.4597 23.1866C45.3047 25.3837 45.5877 26.0685 45.9836 26.6253C46.3723 27.1719 46.8499 27.6495 47.3965 28.0382C47.9533 28.4341 48.6382 28.7171 50.8352 29.5621L63.6103 34.4756C64.5758 34.847 65.2129 35.7746 65.2129 36.809C65.2129 37.8434 64.5758 38.771 63.6103 39.1423L50.8352 44.0558C48.6382 44.9009 47.9533 45.1839 47.3965 45.5798C46.8499 45.9684 46.3723 46.446 45.9836 46.9926C45.5877 47.5494 45.3047 48.2343 44.4597 50.4313L39.5462 63.2064C39.1749 64.1719 38.2473 64.809 37.2129 64.809C36.1784 64.809 35.2508 64.1719 34.8795 63.2064L29.966 50.4313C29.121 48.2343 28.838 47.5494 28.4421 46.9926C28.0534 46.446 27.5758 45.9684 27.0292 45.5798C26.4724 45.1839 25.7875 44.9009 23.5905 44.0559L10.8154 39.1423C9.84996 38.771 9.21289 37.8434 9.21289 36.809C9.21288 35.7746 9.84996 34.847 10.8154 34.4756L23.5905 29.5621C25.7875 28.7171 26.4724 28.4341 27.0292 28.0382C27.5758 27.6495 28.0534 27.1719 28.4421 26.6253C28.838 26.0685 29.121 25.3837 29.966 23.1866L34.8795 10.4115C35.2508 9.44603 36.1784 8.80896 37.2129 8.80896ZM37.2129 18.2732L34.6327 24.9815C34.5978 25.0723 34.5634 25.1619 34.5294 25.2503C33.8311 27.0682 33.3244 28.3873 32.517 29.5228C31.8044 30.5249 30.9288 31.4005 29.9267 32.1131C28.7912 32.9205 27.4721 33.4272 25.6542 34.1256C25.5658 34.1595 25.4762 34.1939 25.3854 34.2288L18.677 36.809L25.3854 39.3891C25.4762 39.424 25.5657 39.4584 25.6541 39.4924C27.4721 40.1907 28.7912 40.6975 29.9267 41.5049C30.9288 42.2175 31.8044 43.093 32.517 44.0952C33.3244 45.2307 33.8311 46.5498 34.5294 48.3677C34.5634 48.4561 34.5978 48.5456 34.6327 48.6364L37.2129 55.3448L39.793 48.6364C39.8279 48.5456 39.8623 48.4561 39.8963 48.3677C40.5946 46.5498 41.1013 45.2307 41.9088 44.0952C42.6213 43.093 43.4969 42.2175 44.499 41.5049C45.6345 40.6975 46.9536 40.1907 48.7716 39.4924C48.8599 39.4584 48.9495 39.424 49.0403 39.3891L55.7487 36.809L49.0403 34.2288C48.9495 34.1939 48.8599 34.1595 48.7715 34.1256C46.9536 33.4272 45.6345 32.9205 44.499 32.1131C43.4969 31.4005 42.6213 30.5249 41.9087 29.5228C41.1013 28.3873 40.5946 27.0682 39.8963 25.2503C39.8623 25.1619 39.8279 25.0723 39.793 24.9815L37.2129 18.2732Z" fill="#222222"/>
<path fill-rule="evenodd" clip-rule="evenodd" d="M23.959 11.9008C23.959 13.58 22.5978 14.9413 20.9185 14.9413L15.3442 14.9413L15.3442 20.5156C15.3442 22.1949 13.9829 23.5562 12.3037 23.5562C10.6245 23.5562 9.26319 22.1949 9.26319 20.5156L9.26319 14.9413L3.68895 14.9413C2.00973 14.9413 0.648427 13.58 0.648427 11.9008C0.648427 10.2216 2.00973 8.86026 3.68895 8.86026L9.26319 8.86026L9.26319 3.286C9.26319 1.60677 10.6245 0.245483 12.3037 0.245483C13.9829 0.245483 15.3442 1.60677 15.3442 3.286L15.3442 8.86026L20.9185 8.86026C22.5978 8.86026 23.959 10.2216 23.959 11.9008Z" fill="#222222"/>
<path fill-rule="evenodd" clip-rule="evenodd" d="M23.959 61.7169C23.959 63.3962 22.5978 64.7575 20.9185 64.7575L15.3442 64.7575L15.3442 70.3318C15.3442 72.011 13.9829 73.3723 12.3037 73.3723C10.6245 73.3723 9.26319 72.011 9.26319 70.3318L9.26319 64.7575L3.68895 64.7575C2.00973 64.7575 0.648427 63.3962 0.648427 61.7169C0.648427 60.0377 2.00973 58.6764 3.68895 58.6764L9.26319 58.6764L9.26319 53.1022C9.26319 51.4229 10.6245 50.0616 12.3037 50.0616C13.9829 50.0616 15.3442 51.4229 15.3442 53.1022L15.3442 58.6764L20.9185 58.6764C22.5978 58.6764 23.959 60.0377 23.959 61.7169Z" fill="#222222"/>
<path d="M70.7349 14.9413C72.4141 14.9413 73.7754 13.58 73.7754 11.9008C73.7754 10.2216 72.4141 8.86026 70.7349 8.86026L65.1606 8.86026L65.1606 3.286C65.1606 1.60677 63.7993 0.245483 62.12 0.245483C60.4408 0.245483 59.0795 1.60677 59.0795 3.286L59.0795 8.86026L53.5053 8.86026C51.8261 8.86026 50.4648 10.2216 50.4648 11.9008C50.4648 13.58 51.8261 14.9413 53.5053 14.9413L59.0795 14.9413L59.0795 20.5156C59.0795 22.1949 60.4408 23.5562 62.12 23.5562C63.7993 23.5562 65.1606 22.1949 65.1606 20.5156L65.1606 14.9413L70.7349 14.9413Z" fill="#222222"/>
<path d="M70.7349 64.7575C72.4141 64.7575 73.7754 63.3962 73.7754 61.7169C73.7754 60.0377 72.4141 58.6764 70.7349 58.6764L65.1606 58.6764L65.1606 53.1022C65.1606 51.4229 63.7993 50.0616 62.12 50.0616C60.4408 50.0616 59.0795 51.4229 59.0795 53.1022L59.0795 58.6764L53.5053 58.6764C51.8261 58.6764 50.4648 60.0377 50.4648 61.7169C50.4648 63.3962 51.8261 64.7575 53.5053 64.7575L59.0795 64.7575L59.0795 70.3318C59.0795 72.011 60.4408 73.3723 62.12 73.3723C63.7993 73.3723 65.1606 72.011 65.1606 70.3318L65.1606 64.7575L70.7349 64.7575Z" fill="#222222"/>
</svg>
